<?xml version="1.0" standalone="no"?>
<!DOCTYPE svg PUBLIC "-//W3C//DTD SVG 20010904//EN"
 "http://www.w3.org/TR/2001/REC-SVG-20010904/DTD/svg10.dtd">
<svg version="1.0" xmlns="http://www.w3.org/2000/svg"
 width="1024.000000pt" height="258.000000pt" viewBox="0 0 1024.000000 258.000000"
 preserveAspectRatio="xMidYMid meet">
<metadata>
Created by potrace 1.15, written by Peter Selinger 2001-2017
</metadata>
<g transform="translate(0.000000,258.000000) scale(0.100000,-0.100000)"
fill="#000000" stroke="none">
<path d="M387 2144 c-94 -22 -167 -64 -238 -134 -112 -111 -155 -229 -146
-400 6 -108 29 -183 80 -262 71 -111 162 -169 415 -263 144 -54 204 -93 228
-152 41 -96 -23 -214 -123 -229 l-43 -6 0 -174 0 -174 38 0 c234 1 467 189
518 418 20 90 14 230 -12 307 -64 182 -157 256 -454 359 -225 78 -270 115
-270 221 0 78 46 138 116 151 l34 6 0 174 0 174 -42 -1 c-24 0 -69 -7 -101
-15z"/>
<path d="M560 1986 c0 -155 2 -176 16 -176 9 0 31 -7 50 -16 38 -18 84 -99 84
-147 0 -28 2 -29 38 -23 20 3 87 8 147 11 175 9 195 14 195 39 0 41 -41 181
-68 230 -79 145 -222 237 -394 253 l-68 6 0 -177z"/>
<path d="M6027 2144 c-32 -7 -83 -26 -115 -40 -77 -37 -199 -159 -236 -237
-52 -110 -56 -155 -56 -612 0 -457 4 -502 56 -612 37 -78 158 -199 238 -236
66 -32 164 -57 219 -57 l37 0 0 175 c0 170 -1 175 -20 175 -28 0 -70 23 -97
52 -52 55 -53 67 -53 506 l0 408 25 50 c26 52 81 94 124 94 21 0 21 4 21 175
l0 175 -42 -1 c-24 0 -69 -7 -101 -15z"/>
<path d="M6210 1987 l0 -173 44 -12 c51 -13 100 -64 115 -119 15 -51 15 -805
0 -856 -15 -55 -64 -106 -115 -119 l-44 -12 0 -173 0 -173 35 0 c58 0 136 21
213 56 87 39 195 140 234 219 57 113 58 119 58 630 0 511 -1 517 -58 630 -39
79 -147 180 -234 219 -77 35 -155 56 -213 56 l-35 0 0 -173z"/>
<path d="M1230 1960 l0 -170 560 0 560 0 0 170 0 170 -560 0 -560 0 0 -170z"/>
<path d="M2716 1968 c-41 -184 -42 -198 -20 -198 77 0 156 -61 207 -157 50
-97 68 -160 168 -613 49 -223 101 -453 116 -513 l26 -107 189 0 190 0 -6 26
c-4 15 -36 155 -72 313 -36 157 -76 329 -89 381 -13 52 -67 282 -120 510 -52
228 -101 438 -108 465 l-13 50 -216 3 -215 2 -37 -162z"/>
<path d="M3580 1960 l0 -170 560 0 560 0 0 170 0 170 -560 0 -560 0 0 -170z"/>
<path d="M4940 1255 l0 -875 185 0 185 0 0 875 0 875 -185 0 -185 0 0 -875z"/>
<path d="M7070 1950 l0 -180 28 0 c68 0 162 -71 205 -156 15 -29 104 -259 202
-524 24 -63 73 -194 110 -290 36 -96 86 -230 112 -297 l45 -123 214 0 214 0 0
178 0 178 -59 12 c-44 9 -70 22 -103 51 -69 61 -85 96 -264 576 -53 143 -138
370 -189 505 l-92 245 -211 3 -212 2 0 -180z"/>
<path d="M7820 1734 l0 -395 40 -97 c21 -53 53 -135 70 -181 52 -143 98 -220
149 -253 29 -18 58 -28 83 -28 l38 0 0 675 0 675 -190 0 -190 0 0 -396z"/>
<path d="M9110 1255 l0 -875 190 0 190 0 0 875 0 875 -190 0 -190 0 0 -875z"/>
<path d="M9520 1960 l0 -170 355 0 355 0 0 170 0 170 -355 0 -355 0 0 -170z"/>
<path d="M1600 1065 l0 -685 190 0 190 0 0 685 0 685 -190 0 -190 0 0 -685z"/>
<path d="M3950 1065 l0 -685 190 0 190 0 0 685 0 685 -190 0 -190 0 0 -685z"/>
<path d="M2621 1553 c-23 -104 -54 -233 -67 -288 -14 -55 -63 -264 -109 -465
-46 -201 -86 -377 -90 -392 l-7 -28 190 0 190 0 21 91 c12 50 21 97 21 105 0
12 31 14 181 14 141 0 180 3 177 13 -3 6 -18 74 -34 149 l-29 138 -107 0 c-68
0 -108 4 -108 10 0 6 23 109 50 230 28 121 50 230 50 244 0 35 -38 153 -70
216 -45 88 -125 150 -193 150 -22 0 -26 -9 -66 -187z"/>
<path d="M7070 1060 l0 -680 185 0 185 0 0 394 0 395 -75 203 c-106 285 -146
342 -257 362 l-38 7 0 -681z"/>
<path d="M9520 1285 l0 -175 230 0 230 0 0 175 0 175 -230 0 -230 0 0 -175z"/>
<path d="M185 879 c-72 -3 -143 -7 -158 -8 l-29 -1 4 -88 c2 -74 8 -97 36
-154 40 -81 144 -183 227 -222 62 -30 168 -56 228 -56 l37 0 0 173 0 173 -43
11 c-56 15 -112 76 -128 138 -8 32 -16 45 -28 43 -9 -1 -74 -5 -146 -9z"/>
</g>
</svg>
